HIERARCHY
ROOT Bip001_Pelvis
{
  OFFSET 32.8599 95.8771 -27.9544
  CHANNELS 6 Xposition Yposition Zposition Zrotation Xrotation Yrotation
  JOINT Bip001_Spine
  {
    OFFSET 1.4188e-005 10.2191 -0.0116013
    CHANNELS 3 Zrotation Xrotation Yrotation
    JOINT Bip001_L_Thigh
    {
      OFFSET 11.0458 -10.2191 0.0116197
      CHANNELS 3 Zrotation Xrotation Yrotation
      JOINT Bip001_L_Calf
      {
        OFFSET -0.707118 -44.0221 0.360014
        CHANNELS 3 Zrotation Xrotation Yrotation
        JOINT Bip001_L_Foot
        {
          OFFSET -0.651902 -40.5938 -3.56146
          CHANNELS 3 Zrotation Xrotation Yrotation
          JOINT Bip001_L_Toe0
          {
            OFFSET 0.0530839 -10.2181 13.1504
            CHANNELS 3 Zrotation Xrotation Yrotation
            End Site
            {
              OFFSET -1.02532e-005 0 7.55606
            }
          }
        }
      }
    }
    JOINT Bip001_R_Thigh
    {
      OFFSET -11.0458 -10.2191 0.0115893
      CHANNELS 3 Zrotation Xrotation Yrotation
      JOINT Bip001_R_Calf
      {
        OFFSET 0.706994 -44.0221 0.35984
        CHANNELS 3 Zrotation Xrotation Yrotation
        JOINT Bip001_R_Foot
        {
          OFFSET 0.651787 -40.5938 -3.5613
          CHANNELS 3 Zrotation Xrotation Yrotation
          JOINT Bip001_R_Toe0
          {
            OFFSET -0.0531479 -10.2181 13.1504
            CHANNELS 3 Zrotation Xrotation Yrotation
            End Site
            {
              OFFSET -1.02894e-005 0 7.55606
            }
          }
        }
      }
    }
    JOINT Bip001_Spine1
    {
      OFFSET 1.87041e-005 14.5736 1.08638
      CHANNELS 3 Zrotation Xrotation Yrotation
      JOINT Bip001_Spine2
      {
        OFFSET 2.24614e-005 14.5058 -1.69078
        CHANNELS 3 Zrotation Xrotation Yrotation
        JOINT Bip001_Neck
        {
          OFFSET 2.20278e-005 15.3945 -0.489414
          CHANNELS 3 Zrotation Xrotation Yrotation
          JOINT Bip001_L_Clavicle
          {
            OFFSET 6.06036 -0.000579998 0.00836775
            CHANNELS 3 Zrotation Xrotation Yrotation
            JOINT Bip001_L_UpperArm
            {
              OFFSET 11.5509 -0.0600302 0.00193952
              CHANNELS 3 Zrotation Xrotation Yrotation
              JOINT Bip001_L_Forearm
              {
                OFFSET 25.9523 0.0806089 -2.15551
                CHANNELS 3 Zrotation Xrotation Yrotation
                JOINT Bip001_L_Hand
                {
                  OFFSET 32.2475 0.153767 1.63968
                  CHANNELS 3 Zrotation Xrotation Yrotation
                  JOINT Bip001_L_Finger0
                  {
                    OFFSET 6.04639 -2.20976 5.90322
                    CHANNELS 3 Zrotation Xrotation Yrotation
                    End Site
                    {
                      OFFSET 4.22375 -1.43895 0.606486
                    }
                  }
                  JOINT Bip001_L_Finger1
                  {
                    OFFSET 11.0826 -0.704819 -0.198153
                    CHANNELS 3 Zrotation Xrotation Yrotation
                    End Site
                    {
                      OFFSET 6.20027 -0.397518 -0.0787166
                    }
                  }
                }
              }
            }
          }
          JOINT Bip001_R_Clavicle
          {
            OFFSET -6.06036 -0.000563197 0.00835105
            CHANNELS 3 Zrotation Xrotation Yrotation
            JOINT Bip001_R_UpperArm
            {
              OFFSET -11.5509 -0.0599978 0.00190698
              CHANNELS 3 Zrotation Xrotation Yrotation
              JOINT Bip001_R_Forearm
              {
                OFFSET -25.9523 0.0806819 -2.1559
                CHANNELS 3 Zrotation Xrotation Yrotation
                JOINT Bip001_R_Hand
                {
                  OFFSET -32.2476 0.153857 1.63991
                  CHANNELS 3 Zrotation Xrotation Yrotation
                  JOINT Bip001_R_Finger0
                  {
                    OFFSET -6.04642 -2.20975 5.9032
                    CHANNELS 3 Zrotation Xrotation Yrotation
                    End Site
                    {
                      OFFSET -4.22376 -1.43894 0.606473
                    }
                  }
                  JOINT Bip001_R_Finger1
                  {
                    OFFSET -11.0826 -0.70479 -0.198183
                    CHANNELS 3 Zrotation Xrotation Yrotation
                    End Site
                    {
                      OFFSET -6.20028 -0.397501 -0.0787337
                    }
                  }
                }
              }
            }
          }
          JOINT Bip001_Head
          {
            OFFSET 1.09673e-005 11.2744 2.05948
            CHANNELS 3 Zrotation Xrotation Yrotation
            End Site
            {
              OFFSET 2.89576e-005 20.8808 -2.77728e-005
            }
          }
        }
      }
    }
  }
}
MOTION
Frames:	9
Frame Time:	0.04
33.2269 95.9277 -29.1404 0.332568 -0.278867 1.77868 -0.293991 2.26284 0.048836 4.94335 -3.49328 8.13418 -0.518602 6.90385 -12.0821 5.13213 -1.80601 -0.179676 -1.40778 -5.03731 2.66997 -3.20837 -3.68843 -2.0631 -0.0830851 10.4993 0.512113 -5.4426 -9.2212 2.08253 2.15694 -7.34283 2.22356 -0.590918 4.51369 0.114974 -0.590918 4.51367 0.114974 0.80615 -11.1818 -2.89359 -25.4432 11.8716 1.0494 -56.4256 43.3132 2.32806 16.4487 5.09436 -20.2474 9.44343 1.82511 -5.33255 1.76556e-031 6.36111e-015 -1.59028e-015 8.82782e-032 3.18056e-015 -1.59028e-015 28.0148 16.9574 10.1816 51.0521 36.8202 5.08818 -8.06647 5.82703 5.19588 -3.85514 9.15409 7.71507 3.18055e-015 9.54166e-015 -0 1.32417e-031 9.54167e-015 -7.95139e-016 -0.513861 -2.40365 -2.50449 
33.2278 95.9305 -29.1517 0.266351 -0.268273 1.72716 -0.267686 2.26693 0.0488362 4.98529 -3.5549 8.14039 -0.532267 6.98516 -12.0673 5.25729 -1.76129 -0.182385 -1.42413 -5.10123 2.66844 -3.17015 -3.68311 -2.02073 -0.0750354 10.3961 0.472535 -5.40378 -9.15695 2.13505 2.15694 -7.34283 2.22356 -0.536671 4.53368 0.0856304 -0.536587 4.53369 0.0853309 0.884387 -11.1527 -2.85945 -25.6653 11.7762 1.25667 -56.2739 43.5666 2.19365 16.2905 4.86422 -20.0939 9.40983 1.73922 -5.29043 3.18055e-015 -6.36111e-015 1.59028e-015 3.18055e-015 0 1.59028e-015 27.8226 16.7545 9.77864 51.0169 37.8401 5.88982 -8.12005 6.19874 4.67222 -4.56588 7.81773 9.71144 3.18055e-015 3.18055e-015 -7.95139e-016 1.59028e-015 0 -0 -0.597294 -2.48382 -2.43988 
33.2405 95.9261 -29.1366 0.246861 -0.346198 1.69626 -0.241468 2.28817 0.0488369 4.97079 -3.52053 8.59126 -0.480692 7.06842 -12.5013 5.38654 -1.753 -0.187335 -1.37444 -5.16168 2.6439 -3.18913 -3.61431 -2.03745 -0.0792275 10.3761 0.468671 -5.37405 -9.14801 2.17946 2.15624 -7.33692 2.21986 -0.484636 4.57612 0.0987976 -0.484772 4.57613 0.0986879 0.997932 -10.9329 -2.89034 -25.7197 11.5594 1.17559 -56.2813 43.7319 1.8434 16.1534 4.86005 -19.5883 9.30369 1.94988 -5.00701 6.36111e-015 3.18055e-015 1.59028e-015 3.18055e-015 6.36111e-015 -0 27.5449 16.4118 9.52133 50.8394 37.6426 6.39299 -8.15677 5.7871 4.47146 -5.67751 9.06884 10.3611 -1.59028e-015 3.18055e-015 1.59028e-015 -8.82782e-032 3.18056e-015 1.59028e-015 -0.705375 -2.64107 -2.42698 
33.2841 95.9279 -29.1093 0.306846 -0.451586 1.64057 -0.228978 2.30883 0.0632243 4.86146 -3.37841 9.10905 -0.388913 7.02891 -12.9378 5.25226 -1.87912 -0.176926 -1.40822 -5.0453 2.6681 -3.3067 -3.54427 -2.12911 -0.0886789 10.4392 0.448968 -5.3015 -9.20524 2.36219 2.15134 -7.28401 2.19902 -0.461239 4.61738 0.135466 -0.461061 4.61739 0.13568 1.06357 -10.7314 -2.91461 -25.8142 11.3986 0.993632 -56.0699 43.7399 1.53801 16.0069 5.05488 -19.306 9.21924 1.97117 -4.91214 -6.36111e-015 -6.36111e-015 1.59028e-015 -6.36111e-015 -9.54167e-015 1.59028e-015 27.4177 16.1385 9.35807 50.5398 37.0156 6.40178 -7.99514 7.00005 4.88871 -6.663 10.7469 9.8398 -3.18055e-015 -3.18055e-015 7.95139e-016 -0 -3.18056e-015 -0 -0.771978 -2.71154 -2.42221 
33.3406 95.9475 -29.114 0.345826 -0.449179 1.66187 -0.213157 2.32213 0.0666722 4.68586 -3.20591 7.47591 -0.516212 6.54253 -11.4578 5.59286 -1.33265 -0.215682 -1.30256 -5.35055 2.58976 -3.43272 -3.49406 -2.23759 -0.0392413 10.3094 0.404467 -5.24619 -9.15956 2.47283 2.14899 -7.26389 2.19668 -0.429621 4.64303 0.14348 -0.429631 4.64304 0.14348 1.05479 -10.7447 -2.92656 -26.0275 11.4042 1.02081 -55.5421 43.7104 1.24476 15.7908 4.95526 -19.3495 9.21883 1.97509 -4.90372 3.18055e-015 3.18055e-015 -1.59028e-015 6.36111e-015 3.18056e-015 -3.18055e-015 27.4076 16.1309 9.29542 50.3458 36.8612 6.08904 -7.75516 7.46133 5.51904 -7.44562 12.9618 9.49781 1.59028e-015 0 -7.95139e-016 1.59028e-015 0 -7.95139e-016 -0.766407 -2.71208 -2.43896 
33.3754 95.9519 -29.1047 0.387678 -0.448945 1.62253 -0.209754 2.33997 0.0928741 4.62999 -3.14173 6.72081 -0.616322 6.39443 -10.686 5.4335 -1.38883 -0.207763 -1.37778 -5.23285 2.67676 -3.51406 -3.50535 -2.29038 -0.0232909 10.3028 0.388557 -5.2335 -9.18157 2.54602 2.14819 -7.28265 2.19497 -0.428824 4.67956 0.194713 -0.420256 4.67957 0.194671 1.12075 -10.7579 -2.99077 -26.0596 11.4208 0.957011 -55.2714 43.5929 1.00784 15.7997 5.09381 -19.4814 9.12692 2.02885 -5.00228 0 0 -0 0 3.18056e-015 -0 27.4385 16.1663 9.28465 50.3562 37.6988 5.26986 -7.80539 6.89627 6.52498 -6.89063 12.4453 9.81319 1.59028e-015 4.77083e-015 -7.95139e-016 6.62086e-032 3.18056e-015 -1.19271e-015 -0.839986 -2.82833 -2.47255 
33.3614 95.9471 -29.0587 0.375691 -0.521539 1.63218 -0.211309 2.37207 0.120237 4.67195 -3.08274 6.88276 -0.641358 6.4218 -10.8319 5.4649 -1.42879 -0.206674 -1.3341 -5.24354 2.61621 -3.47136 -3.41353 -2.35658 -0.0645877 10.268 0.398315 -5.23555 -9.19042 2.55152 2.1482 -7.28848 2.19386 -0.41675 4.74366 0.247918 -0.424274 4.74367 0.247964 1.201 -10.7682 -3.06792 -26.0567 11.4471 0.83706 -55.1182 43.4359 0.825692 15.856 5.17503 -19.6828 9.28603 1.88312 -5.0861 0 6.36111e-015 -0 0 6.36111e-015 -0 27.333 16.2171 9.37767 50.8285 38.285 4.47345 -7.70961 6.00156 7.23784 -6.13412 11.6386 10.1068 3.18055e-015 0 7.95139e-016 6.36111e-015 0 -7.95139e-016 -0.912408 -2.86637 -2.51636 
33.3978 95.9627 -29.0648 0.411327 -0.465821 1.68761 -0.212746 2.37158 0.136733 4.55956 -3.00539 4.89526 -0.810318 6.0296 -9.00814 5.70287 -1.01721 -0.23578 -1.2739 -5.40551 2.57957 -3.54886 -3.43679 -2.44605 -0.0458601 10.2188 0.38957 -5.22768 -9.16138 2.5866 2.15 -7.29652 2.19688 -0.423857 4.74262 0.282256 -0.42815 4.74262 0.282432 1.23063 -10.6996 -3.14219 -26.0467 11.3925 0.727346 -54.9974 43.3105 0.737508 15.8746 5.03613 -19.902 9.39585 1.95813 -5.21027 -0 -3.18055e-015 -0 -0 -3.18056e-015 -0 27.3057 16.2254 9.56755 51.6402 38.1005 3.35805 -7.73257 5.75415 8.22976 -5.80393 11.2537 10.0878 -6.62086e-032 3.18055e-015 1.19271e-015 1.59028e-015 6.36111e-015 3.97569e-016 -0.925746 -2.95565 -2.57822 
33.4607 95.9419 -29.0638 0.456324 -0.389415 1.95333 -0.21226 2.34773 0.0964769 4.42294 -3.25869 6.17344 -0.536156 6.37982 -10.5386 5.79132 -1.13121 -0.236334 -1.27488 -5.43333 2.59431 -3.66734 -3.50753 -2.80618 -0.0262834 10.3782 0.381516 -5.19296 -9.29155 2.70754 2.15581 -7.32272 2.21926 -0.428038 4.69519 0.202734 -0.426865 4.69521 0.202241 1.29421 -10.6118 -3.15932 -26.0552 11.3018 0.706383 -55.0855 43.1364 0.882332 16.0164 4.91153 -20.2453 9.40829 1.93796 -5.22793 0 3.18055e-015 -0 3.18055e-015 0 -0 27.2017 16.1625 9.66025 52.4811 37.6161 2.43344 -7.62804 5.79276 8.86251 -5.96483 11.6388 10.5029 1.32417e-031 -6.36111e-015 1.19271e-015 1.59028e-015 -6.36111e-015 1.19271e-015 -0.949607 -2.97011 -2.57893 
